<svg xmlns="http://www.w3.org/2000/svg" viewBox="0 0 34.28 32.82"><path d="M7.8,23.49c.2-.56.64-.65,1.17-.65,3.09,0,6.19,0,9.28,0,.38,0,.73.06.89.45a3.2,3.2,0,0,1,.09.61,1.71,1.71,0,0,0,.31-.35q2-4.29,3.95-8.57a1.18,1.18,0,0,0,.09-.49c0-1.46,0-2.93,0-4.39A.87.87,0,0,1,24,9.29a4.66,4.66,0,0,1,2.16-.72A2.46,2.46,0,0,1,27.78,9a6.35,6.35,0,0,1,2.8,4.46,9.61,9.61,0,0,1-.25,3.21c-.18,1-.48,1.94-.73,2.91,0,.11-.05.22-.09.37L30,20c2.84,0,5.69,0,8.54,0A3.59,3.59,0,0,1,42,22.78a3.4,3.4,0,0,1-.65,2.87.38.38,0,0,0,0,.57,3.1,3.1,0,0,1-.76,4.62.34.34,0,0,0-.16.51,3.13,3.13,0,0,1-1.28,3.8.31.31,0,0,0-.16.47,3.18,3.18,0,0,1-2.33,4.26,5.37,5.37,0,0,1-.9.07c-4.24,0-8.49,0-12.74,0a8,8,0,0,1-3.5-.75l-.3-.12a2.63,2.63,0,0,0,0,.36c0,.37,0,.74,0,1.11,0,.59-.24.82-.84.82H17.2c-2.76,0-5.52,0-8.28,0-.53,0-.94-.1-1.12-.66ZM29.4,38.6h6.5a1.81,1.81,0,0,0,1.8-1.05,1.79,1.79,0,0,0-.33-2,1.07,1.07,0,0,1-.24-.46c-.06-.44.16-.67.75-.8a1.74,1.74,0,0,0,1.38-2,2.67,2.67,0,0,0-.49-1c-.4-.55-.27-1,.39-1.21l.2,0a1.82,1.82,0,0,0,1.34-2.12,2,2,0,0,0-.93-1.26.68.68,0,0,1-.27-1,1.94,1.94,0,0,1,.37-.33,2.18,2.18,0,0,0,0-3.49,2.46,2.46,0,0,0-1.51-.45H28.49a.65.65,0,0,1-.59-.8c.06-.22.14-.45.22-.67a21,21,0,0,0,1.15-5.3,5,5,0,0,0-1.83-4.1,1.85,1.85,0,0,0-2.19-.3.44.44,0,0,0-.32.47c0,1.31,0,2.62,0,3.92a2.6,2.6,0,0,1-.22,1C23.47,18.27,22.18,21,21,23.72a2.45,2.45,0,0,1-1.48,1.52c-.23.07-.3.24-.3.49q0,5.73,0,11.46a.53.53,0,0,0,.32.52,7.67,7.67,0,0,0,3.63.89ZM9.21,32.07q0,3.76,0,7.51c0,.32.09.43.42.42,2.6,0,5.21,0,7.81,0,.35,0,.44-.13.43-.45,0-.71-.05-1.41-.05-2.11,0-4.05,0-8.09,0-12.14q0-.3,0-.6c0-.44,0-.48-.43-.48-2.57,0-5.14,0-7.71,0-.49,0-.49,0-.49.5C9.2,27.18,9.21,29.63,9.21,32.07Z" transform="translate(-7.8 -8.56)"/></svg>